<mxfile host="app.diagrams.net" agent="Mozilla/5.0 (Macintosh; Intel Mac OS X 10_15_7) AppleWebKit/537.36 (KHTML, like Gecko) Chrome/134.0.0.0 Safari/537.36" version="26.1.1">
  <diagram name="Page-1" id="MKXA0fDUGcRWl4akMo9s">
    <mxGraphModel dx="1594" dy="1131" grid="1" gridSize="10" guides="1" tooltips="1" connect="1" arrows="1" fold="1" page="0" pageScale="1" pageWidth="827" pageHeight="1169" math="0" shadow="0">
      <root>
        <mxCell id="0" />
        <mxCell id="1" parent="0" />
        <mxCell id="rjRmtGKfGtrBU_hQQWLT-1" value="main" style="rounded=0;whiteSpace=wrap;html=1;fillColor=#d5e8d4;strokeColor=#82b366;" vertex="1" parent="1">
          <mxGeometry x="40" y="30" width="120" height="60" as="geometry" />
        </mxCell>
        <mxCell id="rjRmtGKfGtrBU_hQQWLT-2" value="FGI" style="rounded=0;whiteSpace=wrap;html=1;fillColor=#d5e8d4;strokeColor=#82b366;" vertex="1" parent="1">
          <mxGeometry x="240" y="114" width="120" height="60" as="geometry" />
        </mxCell>
        <mxCell id="rjRmtGKfGtrBU_hQQWLT-3" value="COININFO" style="rounded=0;whiteSpace=wrap;html=1;fillColor=#d5e8d4;strokeColor=#82b366;" vertex="1" parent="1">
          <mxGeometry x="240" y="-55" width="120" height="60" as="geometry" />
        </mxCell>
        <mxCell id="rjRmtGKfGtrBU_hQQWLT-4" value="swapfinder" style="rounded=0;whiteSpace=wrap;html=1;fillColor=#dae8fc;strokeColor=#6c8ebf;" vertex="1" parent="1">
          <mxGeometry x="240" y="280" width="120" height="60" as="geometry" />
        </mxCell>
        <mxCell id="rjRmtGKfGtrBU_hQQWLT-5" value="REASON(ASI1)" style="rounded=0;whiteSpace=wrap;html=1;fillColor=#d5e8d4;strokeColor=#82b366;" vertex="1" parent="1">
          <mxGeometry x="240" y="195" width="120" height="60" as="geometry" />
        </mxCell>
        <mxCell id="rjRmtGKfGtrBU_hQQWLT-7" value="" style="endArrow=classic;startArrow=classic;html=1;rounded=0;entryX=0;entryY=0.5;entryDx=0;entryDy=0;exitX=1;exitY=0.5;exitDx=0;exitDy=0;" edge="1" parent="1" source="rjRmtGKfGtrBU_hQQWLT-1" target="rjRmtGKfGtrBU_hQQWLT-2">
          <mxGeometry width="50" height="50" relative="1" as="geometry">
            <mxPoint x="110" y="270" as="sourcePoint" />
            <mxPoint x="160" y="220" as="targetPoint" />
          </mxGeometry>
        </mxCell>
        <mxCell id="rjRmtGKfGtrBU_hQQWLT-8" value="" style="endArrow=classic;startArrow=classic;html=1;rounded=0;entryX=0;entryY=0.5;entryDx=0;entryDy=0;exitX=1;exitY=0.5;exitDx=0;exitDy=0;" edge="1" parent="1" source="rjRmtGKfGtrBU_hQQWLT-1" target="rjRmtGKfGtrBU_hQQWLT-3">
          <mxGeometry width="50" height="50" relative="1" as="geometry">
            <mxPoint x="170" y="200" as="sourcePoint" />
            <mxPoint x="250" y="200" as="targetPoint" />
          </mxGeometry>
        </mxCell>
        <mxCell id="rjRmtGKfGtrBU_hQQWLT-9" value="" style="endArrow=classic;startArrow=classic;html=1;rounded=0;entryX=0;entryY=0.5;entryDx=0;entryDy=0;exitX=1;exitY=0.5;exitDx=0;exitDy=0;" edge="1" parent="1" source="rjRmtGKfGtrBU_hQQWLT-1" target="rjRmtGKfGtrBU_hQQWLT-5">
          <mxGeometry width="50" height="50" relative="1" as="geometry">
            <mxPoint x="140" y="220" as="sourcePoint" />
            <mxPoint x="220" y="300" as="targetPoint" />
          </mxGeometry>
        </mxCell>
        <mxCell id="rjRmtGKfGtrBU_hQQWLT-10" value="" style="endArrow=classic;startArrow=classic;html=1;rounded=0;entryX=0;entryY=0.5;entryDx=0;entryDy=0;" edge="1" parent="1" target="rjRmtGKfGtrBU_hQQWLT-4">
          <mxGeometry width="50" height="50" relative="1" as="geometry">
            <mxPoint x="160" y="70" as="sourcePoint" />
            <mxPoint x="210" y="370" as="targetPoint" />
          </mxGeometry>
        </mxCell>
        <mxCell id="rjRmtGKfGtrBU_hQQWLT-12" value="CRYPTONEWS" style="rounded=0;whiteSpace=wrap;html=1;fillColor=#d5e8d4;strokeColor=#82b366;" vertex="1" parent="1">
          <mxGeometry x="236.5" y="30" width="120" height="60" as="geometry" />
        </mxCell>
        <mxCell id="rjRmtGKfGtrBU_hQQWLT-13" value="NEWS_API" style="ellipse;whiteSpace=wrap;html=1;fillColor=#e1d5e7;strokeColor=#9673a6;" vertex="1" parent="1">
          <mxGeometry x="425.5" y="25" width="105" height="70" as="geometry" />
        </mxCell>
        <mxCell id="rjRmtGKfGtrBU_hQQWLT-14" value="" style="endArrow=classic;startArrow=classic;html=1;rounded=0;exitX=1;exitY=0.5;exitDx=0;exitDy=0;entryX=0;entryY=0.5;entryDx=0;entryDy=0;" edge="1" parent="1" source="rjRmtGKfGtrBU_hQQWLT-12" target="rjRmtGKfGtrBU_hQQWLT-13">
          <mxGeometry width="50" height="50" relative="1" as="geometry">
            <mxPoint x="618" y="510" as="sourcePoint" />
            <mxPoint x="698" y="430" as="targetPoint" />
          </mxGeometry>
        </mxCell>
        <mxCell id="rjRmtGKfGtrBU_hQQWLT-15" value="FGI_API" style="ellipse;whiteSpace=wrap;html=1;fillColor=#e1d5e7;strokeColor=#9673a6;" vertex="1" parent="1">
          <mxGeometry x="425.5" y="110" width="105" height="70" as="geometry" />
        </mxCell>
        <mxCell id="rjRmtGKfGtrBU_hQQWLT-16" value="" style="endArrow=classic;startArrow=classic;html=1;rounded=0;exitX=1;exitY=0.5;exitDx=0;exitDy=0;entryX=0;entryY=0.5;entryDx=0;entryDy=0;" edge="1" parent="1" target="rjRmtGKfGtrBU_hQQWLT-15" source="rjRmtGKfGtrBU_hQQWLT-2">
          <mxGeometry width="50" height="50" relative="1" as="geometry">
            <mxPoint x="420" y="259" as="sourcePoint" />
            <mxPoint x="560" y="309" as="targetPoint" />
          </mxGeometry>
        </mxCell>
        <mxCell id="rjRmtGKfGtrBU_hQQWLT-17" value="" style="endArrow=classic;startArrow=classic;html=1;rounded=0;exitX=1;exitY=0.5;exitDx=0;exitDy=0;entryX=0;entryY=0.5;entryDx=0;entryDy=0;" edge="1" parent="1" target="rjRmtGKfGtrBU_hQQWLT-19" source="rjRmtGKfGtrBU_hQQWLT-3">
          <mxGeometry width="50" height="50" relative="1" as="geometry">
            <mxPoint x="360" y="155" as="sourcePoint" />
            <mxPoint x="420" y="151" as="targetPoint" />
          </mxGeometry>
        </mxCell>
        <mxCell id="rjRmtGKfGtrBU_hQQWLT-19" value="COIN_API" style="ellipse;whiteSpace=wrap;html=1;fillColor=#e1d5e7;strokeColor=#9673a6;" vertex="1" parent="1">
          <mxGeometry x="427.5" y="-60" width="105" height="70" as="geometry" />
        </mxCell>
        <mxCell id="rjRmtGKfGtrBU_hQQWLT-22" value="ethereum&lt;div&gt;WETH/USDC&lt;/div&gt;" style="whiteSpace=wrap;html=1;aspect=fixed;fillColor=#dae8fc;strokeColor=#6c8ebf;" vertex="1" parent="1">
          <mxGeometry x="544" y="280" width="80" height="80" as="geometry" />
        </mxCell>
        <mxCell id="rjRmtGKfGtrBU_hQQWLT-23" value="" style="shape=flexArrow;endArrow=classic;html=1;rounded=0;endWidth=42;endSize=14;width=31;" edge="1" parent="1">
          <mxGeometry width="50" height="50" relative="1" as="geometry">
            <mxPoint x="370" y="319.5" as="sourcePoint" />
            <mxPoint x="500" y="320" as="targetPoint" />
          </mxGeometry>
        </mxCell>
        <mxCell id="rjRmtGKfGtrBU_hQQWLT-24" value="DISCOVERY" style="edgeLabel;html=1;align=center;verticalAlign=middle;resizable=0;points=[];" vertex="1" connectable="0" parent="rjRmtGKfGtrBU_hQQWLT-23">
          <mxGeometry x="-0.4729" y="-1" relative="1" as="geometry">
            <mxPoint x="14" y="-1" as="offset" />
          </mxGeometry>
        </mxCell>
        <mxCell id="rjRmtGKfGtrBU_hQQWLT-26" value="ethereum&lt;div&gt;USDC/WETH&lt;/div&gt;" style="whiteSpace=wrap;html=1;aspect=fixed;fillColor=#dae8fc;strokeColor=#6c8ebf;" vertex="1" parent="1">
          <mxGeometry x="634" y="280" width="80" height="80" as="geometry" />
        </mxCell>
        <mxCell id="rjRmtGKfGtrBU_hQQWLT-28" value="uagent sdk" style="rounded=0;whiteSpace=wrap;html=1;fillColor=#d5e8d4;strokeColor=#82b366;" vertex="1" parent="1">
          <mxGeometry x="-250" y="60" width="120" height="60" as="geometry" />
        </mxCell>
        <mxCell id="rjRmtGKfGtrBU_hQQWLT-29" value="fetchai sdk" style="rounded=0;whiteSpace=wrap;html=1;fillColor=#dae8fc;strokeColor=#6c8ebf;" vertex="1" parent="1">
          <mxGeometry x="-250" y="135" width="120" height="60" as="geometry" />
        </mxCell>
        <mxCell id="rjRmtGKfGtrBU_hQQWLT-30" value="base&lt;div&gt;WETH/USDC&lt;/div&gt;" style="whiteSpace=wrap;html=1;aspect=fixed;fillColor=#dae8fc;strokeColor=#6c8ebf;" vertex="1" parent="1">
          <mxGeometry x="544" y="370" width="80" height="80" as="geometry" />
        </mxCell>
        <mxCell id="rjRmtGKfGtrBU_hQQWLT-31" value="base&lt;div&gt;USDC/WETH&lt;/div&gt;" style="whiteSpace=wrap;html=1;aspect=fixed;fillColor=#dae8fc;strokeColor=#6c8ebf;" vertex="1" parent="1">
          <mxGeometry x="634" y="370" width="80" height="80" as="geometry" />
        </mxCell>
        <mxCell id="rjRmtGKfGtrBU_hQQWLT-32" value="polygon&lt;br&gt;&lt;div&gt;POL/USDC&lt;/div&gt;" style="whiteSpace=wrap;html=1;aspect=fixed;fillColor=#dae8fc;strokeColor=#6c8ebf;" vertex="1" parent="1">
          <mxGeometry x="544" y="470" width="80" height="80" as="geometry" />
        </mxCell>
        <mxCell id="rjRmtGKfGtrBU_hQQWLT-33" value="polygon&lt;div&gt;USDC/POL&lt;/div&gt;" style="whiteSpace=wrap;html=1;aspect=fixed;fillColor=#dae8fc;strokeColor=#6c8ebf;" vertex="1" parent="1">
          <mxGeometry x="634" y="470" width="80" height="80" as="geometry" />
        </mxCell>
        <mxCell id="rjRmtGKfGtrBU_hQQWLT-34" value="dashboard" style="rounded=0;whiteSpace=wrap;html=1;fillColor=#dae8fc;strokeColor=#6c8ebf;" vertex="1" parent="1">
          <mxGeometry x="240" y="520" width="120" height="60" as="geometry" />
        </mxCell>
        <mxCell id="rjRmtGKfGtrBU_hQQWLT-35" value="" style="endArrow=classic;startArrow=classic;html=1;rounded=0;entryX=0;entryY=0.5;entryDx=0;entryDy=0;exitX=1;exitY=0.5;exitDx=0;exitDy=0;" edge="1" parent="1" source="rjRmtGKfGtrBU_hQQWLT-1" target="rjRmtGKfGtrBU_hQQWLT-34">
          <mxGeometry width="50" height="50" relative="1" as="geometry">
            <mxPoint x="140" y="250" as="sourcePoint" />
            <mxPoint x="220" y="490" as="targetPoint" />
          </mxGeometry>
        </mxCell>
        <mxCell id="rjRmtGKfGtrBU_hQQWLT-36" value="UNISWAPV3&lt;div&gt;smart contract&lt;/div&gt;" style="ellipse;whiteSpace=wrap;html=1;fillColor=#e1d5e7;strokeColor=#9673a6;" vertex="1" parent="1">
          <mxGeometry x="814" y="350" width="120" height="80" as="geometry" />
        </mxCell>
        <mxCell id="rjRmtGKfGtrBU_hQQWLT-37" value="" style="shape=flexArrow;endArrow=classic;html=1;rounded=0;endWidth=42;endSize=14.04;width=21;" edge="1" parent="1">
          <mxGeometry width="50" height="50" relative="1" as="geometry">
            <mxPoint x="724" y="390" as="sourcePoint" />
            <mxPoint x="804" y="391" as="targetPoint" />
          </mxGeometry>
        </mxCell>
        <mxCell id="rjRmtGKfGtrBU_hQQWLT-38" value="execute" style="edgeLabel;html=1;align=center;verticalAlign=middle;resizable=0;points=[];" vertex="1" connectable="0" parent="rjRmtGKfGtrBU_hQQWLT-37">
          <mxGeometry x="-0.4729" y="-1" relative="1" as="geometry">
            <mxPoint x="14" y="-1" as="offset" />
          </mxGeometry>
        </mxCell>
        <mxCell id="rjRmtGKfGtrBU_hQQWLT-40" value="" style="endArrow=classic;startArrow=classic;html=1;rounded=0;entryX=0;entryY=0.5;entryDx=0;entryDy=0;exitX=1;exitY=0.5;exitDx=0;exitDy=0;" edge="1" parent="1" source="rjRmtGKfGtrBU_hQQWLT-1" target="rjRmtGKfGtrBU_hQQWLT-12">
          <mxGeometry width="50" height="50" relative="1" as="geometry">
            <mxPoint x="610" y="110" as="sourcePoint" />
            <mxPoint x="690" y="275" as="targetPoint" />
          </mxGeometry>
        </mxCell>
        <mxCell id="rjRmtGKfGtrBU_hQQWLT-41" value="CRYPTO_API&lt;div&gt;TOKEN/USDC&lt;/div&gt;" style="ellipse;whiteSpace=wrap;html=1;fillColor=#e1d5e7;strokeColor=#9673a6;" vertex="1" parent="1">
          <mxGeometry x="410" y="515" width="105" height="70" as="geometry" />
        </mxCell>
        <mxCell id="rjRmtGKfGtrBU_hQQWLT-42" value="" style="endArrow=classic;startArrow=classic;html=1;rounded=0;entryX=0;entryY=0.5;entryDx=0;entryDy=0;exitX=1;exitY=0.5;exitDx=0;exitDy=0;" edge="1" parent="1" source="rjRmtGKfGtrBU_hQQWLT-34" target="rjRmtGKfGtrBU_hQQWLT-41">
          <mxGeometry width="50" height="50" relative="1" as="geometry">
            <mxPoint x="560" y="530" as="sourcePoint" />
            <mxPoint x="640" y="770" as="targetPoint" />
          </mxGeometry>
        </mxCell>
      </root>
    </mxGraphModel>
  </diagram>
</mxfile>
